<?xml version="1.0" encoding="utf-8"?>
<!-- Generator: Adobe Illustrator 25.4.1, SVG Export Plug-In . SVG Version: 6.00 Build 0)  -->
<svg version="1.1" id="Layer_1" xmlns="http://www.w3.org/2000/svg" xmlns:xlink="http://www.w3.org/1999/xlink" x="0px" y="0px"
	 viewBox="0 0 30 30" style="enable-background:new 0 0 30 30;" xml:space="preserve">
<style type="text/css">
	.st0{fill:url(#SVGID_1_);}
	.st1{fill:url(#SVGID_00000078039707284029528720000003070659462243455616_);}
	.st2{fill:url(#SVGID_00000121971829250119412260000004235654279101556656_);}
	.st3{fill:url(#SVGID_00000170984047229788811710000002033104822976001678_);}
	.st4{fill:url(#SVGID_00000085959455133261077660000011560887418738793371_);}
</style>
<linearGradient id="SVGID_1_" gradientUnits="userSpaceOnUse" x1="4.2893" y1="25.5015" x2="25.7107" y2="4.4985">
	<stop  offset="0" style="stop-color:#2EC6BA"/>
	<stop  offset="0.9816" style="stop-color:#2BEE9E"/>
</linearGradient>
<path class="st0" d="M15,0.9c7.8,0,14.1,6.3,14.1,14.1S22.8,29.1,15,29.1S0.9,22.8,0.9,15S7.2,0.9,15,0.9 M15,0C6.7,0,0,6.7,0,15
	c0,8.3,6.7,15,15,15c8.3,0,15-6.7,15-15C30,6.7,23.3,0,15,0L15,0z"/>
<g id="Layer_4">
	<g>
		
			<linearGradient id="SVGID_00000076599915941838100150000008979401398297860525_" gradientUnits="userSpaceOnUse" x1="7.3558" y1="19.9495" x2="16.0381" y2="9.573">
			<stop  offset="0" style="stop-color:#2EC6BA"/>
			<stop  offset="0.9816" style="stop-color:#2BEE9E"/>
		</linearGradient>
		<path style="fill:url(#SVGID_00000076599915941838100150000008979401398297860525_);" d="M14.7,7.5c2,0,3.6,1.6,3.6,3.6
			c0,2-1.6,3.6-3.6,3.6c-2,0-3.6-1.6-3.6-3.6C11.1,9.1,12.8,7.5,14.7,7.5z M12.2,11.1c0,1.4,1.2,2.6,2.6,2.6c1.4,0,2.6-1.2,2.6-2.6
			c0-1.4-1.2-2.6-2.6-2.6C13.3,8.5,12.2,9.7,12.2,11.1z"/>
		
			<linearGradient id="SVGID_00000127725394888857828440000006969533412143108226_" gradientUnits="userSpaceOnUse" x1="13.882" y1="25.4102" x2="22.5643" y2="15.0337">
			<stop  offset="0" style="stop-color:#2EC6BA"/>
			<stop  offset="0.9816" style="stop-color:#2BEE9E"/>
		</linearGradient>
		<path style="fill:url(#SVGID_00000127725394888857828440000006969533412143108226_);" d="M22.5,19.1c0,1.9-1.5,3.4-3.4,3.4
			c-1.8,0-3.4-1.5-3.3-3.4c0-1.9,1.5-3.4,3.4-3.4C21,15.8,22.5,17.3,22.5,19.1z M19.1,16.8c-1.3,0-2.3,1-2.3,2.3
			c0,1.3,1,2.3,2.3,2.4c1.3,0,2.3-1,2.3-2.3C21.5,17.9,20.4,16.8,19.1,16.8z"/>
		
			<linearGradient id="SVGID_00000030467273215965762990000006856560777583887039_" gradientUnits="userSpaceOnUse" x1="9.8468" y1="22.0338" x2="18.5292" y2="11.6574">
			<stop  offset="0" style="stop-color:#2EC6BA"/>
			<stop  offset="0.9816" style="stop-color:#2BEE9E"/>
		</linearGradient>
		<path style="fill:url(#SVGID_00000030467273215965762990000006856560777583887039_);" d="M8.6,21c0.1,0,0.1,0,0.2,0c2,0,4,0,5.9,0
			c0.4,0,0.7,0.3,0.5,0.7C15.2,21.8,15,22,14.8,22c0,0-0.1,0-0.1,0c-2.2,0-4.3,0-6.5,0c-0.4,0-0.6-0.2-0.6-0.6c0-0.6,0-1.2,0.1-1.9
			c0.4-2,2.1-3.5,4.1-3.7c0.7-0.1,1.5,0,2.2,0c0.3,0,0.5,0,0.8,0c0.3,0,0.5,0.2,0.5,0.5c0,0.3-0.2,0.5-0.5,0.5c-0.9,0-1.7,0-2.6,0
			c-1.7,0-3.2,1.2-3.5,2.9c0,0.2-0.1,0.4-0.1,0.5C8.5,20.4,8.6,20.7,8.6,21z"/>
		
			<linearGradient id="SVGID_00000134250567612685584580000012021205430650514866_" gradientUnits="userSpaceOnUse" x1="13.6058" y1="25.1791" x2="22.2881" y2="14.8026">
			<stop  offset="0" style="stop-color:#2EC6BA"/>
			<stop  offset="0.9816" style="stop-color:#2BEE9E"/>
		</linearGradient>
		<path style="fill:url(#SVGID_00000134250567612685584580000012021205430650514866_);" d="M18.9,19.1c0.4-0.4,0.8-0.7,1.2-1.1
			c0.2-0.1,0.3-0.2,0.5-0.1c0.2,0.1,0.3,0.2,0.4,0.4c0,0.2,0,0.3-0.1,0.5c-0.5,0.5-1,1-1.5,1.6c-0.2,0.2-0.5,0.2-0.7,0
			c-0.4-0.4-0.7-0.7-1.1-1.1c-0.2-0.2-0.2-0.5,0-0.7c0.2-0.2,0.5-0.2,0.7,0C18.4,18.7,18.7,18.9,18.9,19.1
			C18.9,19.2,18.9,19.2,18.9,19.1C18.9,19.1,18.9,19.1,18.9,19.1z"/>
	</g>
</g>
</svg>
