<?xml version="1.0" encoding="utf-8"?>
<!-- Generator: Adobe Illustrator 25.4.1, SVG Export Plug-In . SVG Version: 6.00 Build 0)  -->
<svg version="1.1" id="Layer_1" xmlns="http://www.w3.org/2000/svg" xmlns:xlink="http://www.w3.org/1999/xlink" x="0px" y="0px"
	 viewBox="0 0 30 30" style="enable-background:new 0 0 30 30;" xml:space="preserve">
<style type="text/css">
	.st0{fill:url(#SVGID_1_);}
	.st1{fill:url(#SVGID_00000119102569532824271110000015471019655874887593_);}
	.st2{fill:url(#SVGID_00000093882182901869978240000010612641760527577496_);}
	.st3{fill-rule:evenodd;clip-rule:evenodd;fill:url(#SVGID_00000060001156359197735350000018098667285820432770_);}
</style>
<linearGradient id="SVGID_1_" gradientUnits="userSpaceOnUse" x1="4.2893" y1="25.5015" x2="25.7107" y2="4.4985">
	<stop  offset="0" style="stop-color:#2EC6BA"/>
	<stop  offset="0.9816" style="stop-color:#2BEE9E"/>
</linearGradient>
<path class="st0" d="M15,0.9c7.8,0,14.1,6.3,14.1,14.1S22.8,29.1,15,29.1S0.9,22.8,0.9,15S7.2,0.9,15,0.9 M15,0C6.7,0,0,6.7,0,15
	c0,8.3,6.7,15,15,15c8.3,0,15-6.7,15-15C30,6.7,23.3,0,15,0L15,0z"/>
<g id="Layer_2">
	<g>
		
			<linearGradient id="SVGID_00000168103166676028620100000004749612397537828260_" gradientUnits="userSpaceOnUse" x1="10.9244" y1="22.2578" x2="21.5832" y2="10.0461">
			<stop  offset="0" style="stop-color:#2EC6BA"/>
			<stop  offset="0.9816" style="stop-color:#2BEE9E"/>
		</linearGradient>
		<path style="fill:url(#SVGID_00000168103166676028620100000004749612397537828260_);" d="M15,7.5c-0.4,0-0.7,0.3-0.7,0.7
			c0,0.4,0.3,0.7,0.7,0.7c3.4,0,6.1,2.7,6.1,6.1c0,1.8-0.8,3.4-2,4.6v-0.1c0-0.4-0.3-0.7-0.7-0.7c-0.4,0-0.7,0.3-0.7,0.7v1.7
			c0,0.4,0.3,0.7,0.7,0.7h1.7c0.4,0,0.7-0.3,0.7-0.7c0-0.4-0.3-0.7-0.6-0.7c1.4-1.4,2.4-3.3,2.4-5.5C22.5,10.9,19.1,7.5,15,7.5z"/>
		
			<linearGradient id="SVGID_00000003093193742685139680000017395974327276923046_" gradientUnits="userSpaceOnUse" x1="8.3597" y1="20.0193" x2="19.0185" y2="7.8076">
			<stop  offset="0" style="stop-color:#2EC6BA"/>
			<stop  offset="0.9816" style="stop-color:#2BEE9E"/>
		</linearGradient>
		<path style="fill:url(#SVGID_00000003093193742685139680000017395974327276923046_);" d="M7.5,15c0-2.1,0.9-4.1,2.4-5.5
			c-0.4,0-0.6-0.3-0.6-0.7c0-0.4,0.3-0.7,0.7-0.7h1.7c0.4,0,0.7,0.3,0.7,0.7v1.7c0,0.4-0.3,0.7-0.7,0.7c-0.4,0-0.7-0.3-0.7-0.7v-0.1
			c-1.3,1.1-2,2.8-2,4.6c0,3.4,2.7,6.1,6.1,6.1c0.4,0,0.7,0.3,0.7,0.7c0,0.4-0.3,0.7-0.7,0.7C10.9,22.5,7.5,19.1,7.5,15z"/>
		
			<linearGradient id="SVGID_00000008844055736304673730000003784621476780621732_" gradientUnits="userSpaceOnUse" x1="9.6421" y1="21.1386" x2="20.3009" y2="8.9268">
			<stop  offset="0" style="stop-color:#2EC6BA"/>
			<stop  offset="0.9816" style="stop-color:#2BEE9E"/>
		</linearGradient>
		<path style="fill-rule:evenodd;clip-rule:evenodd;fill:url(#SVGID_00000008844055736304673730000003784621476780621732_);" d="
			M18.4,11.6c0.2,0.2,0.2,0.5,0,0.7l-6.1,6.1c-0.2,0.2-0.5,0.2-0.7,0c-0.2-0.2-0.2-0.5,0-0.7l6.1-6.1C17.9,11.4,18.2,11.4,18.4,11.6
			z M11.4,13.1c0-0.9,0.8-1.7,1.7-1.7s1.7,0.8,1.7,1.7c0,0.9-0.8,1.7-1.7,1.7S11.4,14.1,11.4,13.1z M13.1,12.4
			c-0.4,0-0.7,0.3-0.7,0.7c0,0.4,0.3,0.7,0.7,0.7s0.7-0.3,0.7-0.7C13.8,12.7,13.5,12.4,13.1,12.4z M15.2,16.9c0-0.9,0.8-1.7,1.7-1.7
			c0.9,0,1.7,0.8,1.7,1.7c0,0.9-0.8,1.7-1.7,1.7C15.9,18.6,15.2,17.8,15.2,16.9z M16.9,16.2c-0.4,0-0.7,0.3-0.7,0.7
			c0,0.4,0.3,0.7,0.7,0.7s0.7-0.3,0.7-0.7C17.6,16.5,17.3,16.2,16.9,16.2z"/>
	</g>
</g>
</svg>
