<?xml version="1.0" encoding="utf-8"?>
<!-- Generator: Adobe Illustrator 25.4.1, SVG Export Plug-In . SVG Version: 6.00 Build 0)  -->
<svg version="1.1" id="Layer_1" xmlns="http://www.w3.org/2000/svg" xmlns:xlink="http://www.w3.org/1999/xlink" x="0px" y="0px"
	 viewBox="0 0 30 30" style="enable-background:new 0 0 30 30;" xml:space="preserve">
<style type="text/css">
	.st0{fill:url(#SVGID_1_);}
	.st1{fill:url(#SVGID_00000015325288992168137920000006469302500492451469_);}
	.st2{fill:url(#SVGID_00000038402489728135626880000016963031521024127396_);}
	.st3{fill:url(#SVGID_00000088091496289597741610000002616060133018211749_);}
</style>
<linearGradient id="SVGID_1_" gradientUnits="userSpaceOnUse" x1="4.2893" y1="25.5015" x2="25.7107" y2="4.4985">
	<stop  offset="0" style="stop-color:#2EC6BA"/>
	<stop  offset="0.9816" style="stop-color:#2BEE9E"/>
</linearGradient>
<path class="st0" d="M15,0.9c7.8,0,14.1,6.3,14.1,14.1S22.8,29.1,15,29.1S0.9,22.8,0.9,15S7.2,0.9,15,0.9 M15,0C6.7,0,0,6.7,0,15
	c0,8.3,6.7,15,15,15c8.3,0,15-6.7,15-15C30,6.7,23.3,0,15,0L15,0z"/>
<g id="Layer_3">
	<g>
		
			<linearGradient id="SVGID_00000021120229521037523750000004374666815449008292_" gradientUnits="userSpaceOnUse" x1="10.3326" y1="21.4362" x2="20.0737" y2="10.1421">
			<stop  offset="0" style="stop-color:#2EC6BA"/>
			<stop  offset="0.9816" style="stop-color:#2BEE9E"/>
		</linearGradient>
		<path style="fill:url(#SVGID_00000021120229521037523750000004374666815449008292_);" d="M7.5,14.6c0-0.3,0.1-0.5,0.1-0.8
			c0.1-0.4,0.2-0.9,0.3-1.3c0.3,0.1,0.6,0.2,0.9,0.3c-0.7,2-0.5,3.9,0.6,5.6c0.7,1.1,1.6,2,2.8,2.6c2.5,1.2,5.1,0.6,6.9-0.8
			c-0.1-0.3-0.2-0.6-0.1-0.9c0.2-0.7,0.9-1.1,1.7-0.9c0.7,0.2,1.1,1,0.9,1.7c-0.2,0.7-1,1.1-1.7,0.8c-0.1,0-0.2,0-0.2,0
			c-1.1,0.8-2.3,1.4-3.6,1.5c-0.2,0-0.4,0-0.5,0.1c-0.3,0-0.6,0-0.9,0c-0.1,0-0.2,0-0.3,0c-1.3-0.1-2.6-0.6-3.7-1.4
			c-1.6-1.2-2.6-2.8-3-4.8c-0.1-0.3-0.1-0.6-0.1-0.8C7.5,15.2,7.5,14.9,7.5,14.6z M20.3,19.2c-0.2,0-0.4,0.2-0.4,0.4
			c0,0.2,0.2,0.4,0.4,0.4c0.2,0,0.4-0.2,0.4-0.4S20.5,19.2,20.3,19.2z"/>
		
			<linearGradient id="SVGID_00000107558706075048674990000006476870280098499213_" gradientUnits="userSpaceOnUse" x1="9.8245" y1="20.9979" x2="19.5656" y2="9.7038">
			<stop  offset="0" style="stop-color:#2EC6BA"/>
			<stop  offset="0.9816" style="stop-color:#2BEE9E"/>
		</linearGradient>
		<path style="fill:url(#SVGID_00000107558706075048674990000006476870280098499213_);" d="M15,19.8c-2.7,0-4.8-2.2-4.8-4.8
			s2.2-4.8,4.8-4.8c2.7,0,4.8,2.2,4.8,4.8C19.8,17.7,17.7,19.8,15,19.8z M14.5,14.6c0-1.1,0-2.2,0-3.3c0,0,0,0,0,0
			c-0.9,0.9-1.1,2.1-1.3,3.4C13.7,14.6,14.1,14.6,14.5,14.6z M13.2,15.4c0,0.3,0.1,0.6,0.1,0.9c0.1,0.7,0.3,1.4,0.7,1.9
			c0.1,0.2,0.3,0.3,0.4,0.5c0,0,0,0,0,0c0-1.1,0-2.2,0-3.3C14.1,15.4,13.7,15.4,13.2,15.4z M15.4,11.2c0,1.1,0,2.2,0,3.4
			c0.4,0,0.9,0,1.3,0c0-0.2,0-0.4-0.1-0.5c-0.1-0.7-0.2-1.4-0.6-2C16,11.7,15.8,11.4,15.4,11.2z M15.4,18.8
			C15.5,18.8,15.5,18.8,15.4,18.8c1-0.9,1.2-2.1,1.3-3.3c-0.5,0-0.9,0-1.3,0C15.4,16.6,15.4,17.7,15.4,18.8z M16.9,11.5
			c0.5,1,0.7,2,0.8,3c0.4,0,0.9,0,1.3,0C18.9,13.4,18,12.1,16.9,11.5z M17.6,15.4c-0.1,1.1-0.3,2.1-0.7,3c1.2-0.7,1.9-1.7,2.1-3
			C18.5,15.4,18.1,15.4,17.6,15.4z M13.1,11.5c-1.1,0.5-2,1.8-2.1,3c0.4,0,0.8,0,1.3,0C12.4,13.5,12.6,12.5,13.1,11.5z M13.1,18.5
			c-0.5-1-0.7-2-0.7-3c-0.4,0-0.9,0-1.3,0C11.3,16.8,11.9,17.8,13.1,18.5z"/>
		
			<linearGradient id="SVGID_00000154412587085897610000000014342991512467055238_" gradientUnits="userSpaceOnUse" x1="9.3076" y1="20.5521" x2="19.0488" y2="9.258">
			<stop  offset="0" style="stop-color:#2EC6BA"/>
			<stop  offset="0.9816" style="stop-color:#2BEE9E"/>
		</linearGradient>
		<path style="fill:url(#SVGID_00000154412587085897610000000014342991512467055238_);" d="M22,17.5c-0.3-0.1-0.5-0.2-0.8-0.3
			c0.7-1.8,0.5-3.6-0.4-5.3c-0.6-1.2-1.5-2.1-2.7-2.7c-2.4-1.3-5.2-0.9-7.2,0.7C11,9.9,11,10,11,10.2c0.1,0.7-0.4,1.4-1.1,1.5
			s-1.4-0.3-1.5-1c-0.1-0.7,0.3-1.4,1-1.6c0.2,0,0.5,0,0.7,0.1c0.1,0,0.2,0,0.2-0.1c0.9-0.7,1.9-1.2,3.1-1.4
			c2.4-0.5,4.5,0.1,6.4,1.7c1.4,1.2,2.2,2.7,2.5,4.5C22.6,15,22.5,16.3,22,17.5z M10.2,10.4c0-0.2-0.2-0.4-0.4-0.4
			c-0.2,0-0.4,0.2-0.4,0.4s0.2,0.4,0.4,0.4C10,10.8,10.2,10.6,10.2,10.4z"/>
	</g>
</g>
</svg>
