<?xml version="1.0" encoding="utf-8"?>
<!-- Generator: Adobe Illustrator 25.4.1, SVG Export Plug-In . SVG Version: 6.00 Build 0)  -->
<svg version="1.1" id="Layer_1" xmlns="http://www.w3.org/2000/svg" xmlns:xlink="http://www.w3.org/1999/xlink" x="0px" y="0px"
	 viewBox="0 0 30 30" style="enable-background:new 0 0 30 30;" xml:space="preserve">
<style type="text/css">
	.st0{fill:url(#SVGID_1_);}
	.st1{fill:url(#SVGID_00000085937614306491617940000000390828707095295906_);}
	.st2{fill:url(#SVGID_00000159427667967035889040000006879587181925360307_);}
</style>
<linearGradient id="SVGID_1_" gradientUnits="userSpaceOnUse" x1="4.2893" y1="25.5015" x2="25.7107" y2="4.4985">
	<stop  offset="0" style="stop-color:#2EC6BA"/>
	<stop  offset="0.9816" style="stop-color:#2BEE9E"/>
</linearGradient>
<path class="st0" d="M15,0.9c7.8,0,14.1,6.3,14.1,14.1S22.8,29.1,15,29.1S0.9,22.8,0.9,15S7.2,0.9,15,0.9 M15,0C6.7,0,0,6.7,0,15
	c0,8.3,6.7,15,15,15c8.3,0,15-6.7,15-15C30,6.7,23.3,0,15,0L15,0z"/>
<g>
	
		<linearGradient id="SVGID_00000013890154515078110170000009256551225575590049_" gradientUnits="userSpaceOnUse" x1="9.2144" y1="20.4871" x2="22.0341" y2="7.9178">
		<stop  offset="0" style="stop-color:#2EC6BA"/>
		<stop  offset="0.9816" style="stop-color:#2BEE9E"/>
	</linearGradient>
	<path style="fill:url(#SVGID_00000013890154515078110170000009256551225575590049_);" d="M8.5,10.8c0.1-0.1,0.2-0.3,0.3-0.4
		C9.2,10,9.5,9.6,9.9,9.3C10.2,9,10.4,9,10.7,9.2c0.4,0.2,0.8,0.4,1.3,0.5c0.6,0.1,1.2,0,1.7-0.3c0.3-0.2,0.6-0.4,0.9-0.7
		c0.3-0.3,0.6-0.3,0.9,0c0.5,0.5,1.1,0.9,1.8,1c0.5,0.1,1-0.1,1.5-0.3c0.2-0.1,0.4-0.2,0.5-0.3C19.6,9,19.8,9,20.1,9.2
		c0.4,0.4,0.8,0.8,1.3,1.3c0.2,0.3,0.2,0.6,0,0.8c-0.2,0.2-0.6,0.2-0.8,0c-0.3-0.3-0.6-0.6-0.9-0.9c-0.1-0.1-0.1-0.1-0.2,0
		c-0.5,0.3-1.1,0.4-1.7,0.5c-1,0-1.8-0.3-2.6-0.9c0,0-0.1-0.1-0.1-0.1c0,0,0,0,0,0c-0.1,0.1-0.3,0.2-0.4,0.3
		c-0.7,0.4-1.4,0.7-2.3,0.7c-0.6,0-1.1-0.2-1.7-0.4c-0.1-0.1-0.2-0.1-0.3,0c-0.2,0.2-0.3,0.3-0.5,0.5c-0.1,0.1-0.1,0.1,0,0.2
		c0.3,0.6,0.5,1.3,0.7,2c0.2,0.9,0.1,1.7-0.1,2.6c-0.1,0.5-0.3,1.1-0.4,1.6c-0.1,0.4-0.1,0.9,0,1.3c0.1,0.7,0.5,1.2,1.1,1.6
		c0.6,0.3,1.2,0.5,1.8,0.8c0.3,0.1,0.5,0.2,0.8,0.3c0.5,0.2,0.9,0.4,1.3,0.8c0.1-0.1,0.2-0.1,0.3-0.2c0.5-0.4,1.2-0.6,1.8-0.8
		c0.4-0.2,0.8-0.3,1.2-0.5c0.3-0.1,0.7,0,0.8,0.3c0.1,0.3,0,0.6-0.4,0.8c-0.6,0.2-1.2,0.5-1.8,0.7c-0.5,0.2-1.1,0.5-1.4,1
		c-0.1,0.1-0.2,0.1-0.3,0.2c-0.1,0-0.2,0-0.2,0c-0.2-0.1-0.3-0.2-0.4-0.3c-0.1-0.1-0.2-0.2-0.3-0.3c-0.4-0.3-0.9-0.5-1.3-0.7
		c-0.7-0.3-1.4-0.5-2.1-0.8c-0.6-0.3-1.2-0.7-1.5-1.3c-0.5-0.8-0.6-1.7-0.5-2.7c0.1-0.6,0.3-1.2,0.4-1.8c0.3-0.9,0.3-1.9,0-2.8
		C9,12.2,8.7,11.6,8.5,11C8.5,11,8.5,10.9,8.5,10.8z"/>
	
		<linearGradient id="SVGID_00000021087013907896888820000003260332376641021887_" gradientUnits="userSpaceOnUse" x1="12.8798" y1="24.2256" x2="25.6995" y2="11.6563">
		<stop  offset="0.1054" style="stop-color:#2EC6BA"/>
		<stop  offset="0.9751" style="stop-color:#2BEE9E"/>
	</linearGradient>
	<path style="fill:url(#SVGID_00000021087013907896888820000003260332376641021887_);" d="M18.7,14.5c0-0.3,0-0.5,0-0.7
		c0.1-0.9,1-1.5,1.9-1.5c0.9,0.1,1.6,0.8,1.6,1.7c0,0.1,0,0.3,0,0.4c0.1,0.1,0.2,0.1,0.4,0.2c0.6,0.3,0.9,0.7,0.9,1.3c0,1,0,2,0,3
		c0,0.3-0.3,0.6-0.6,0.6c-1.6,0-3.3,0-4.9,0c-0.4,0-0.6-0.3-0.6-0.6c0-1,0-2,0-2.9C17.4,15.2,17.9,14.6,18.7,14.5
		C18.6,14.5,18.6,14.5,18.7,14.5z M18.6,18.2c1.3,0,2.5,0,3.7,0c0-0.8,0-1.6,0-2.3c0-0.2-0.1-0.3-0.3-0.3c-0.3,0-0.6,0-0.9,0
		c-0.7,0-1.5,0-2.2,0c-0.2,0-0.3,0.1-0.3,0.3C18.6,16.7,18.6,17.5,18.6,18.2z M19.9,14.4c0.4,0,0.8,0,1.2,0c0-0.2,0-0.3,0-0.5
		c0-0.3-0.3-0.5-0.6-0.5c-0.3,0-0.6,0.2-0.6,0.5C19.9,14.1,19.9,14.3,19.9,14.4z"/>
</g>
</svg>
