<?xml version="1.0" encoding="utf-8"?>
<!-- Generator: Adobe Illustrator 25.4.1, SVG Export Plug-In . SVG Version: 6.00 Build 0)  -->
<svg version="1.1" id="Layer_1" xmlns="http://www.w3.org/2000/svg" xmlns:xlink="http://www.w3.org/1999/xlink" x="0px" y="0px"
	 viewBox="0 0 30 30" style="enable-background:new 0 0 30 30;" xml:space="preserve">
<style type="text/css">
	.st0{fill:url(#SVGID_1_);}
	.st1{fill:#E2761B;stroke:#E2761B;stroke-width:5.882353e-02;stroke-linecap:round;stroke-linejoin:round;}
	.st2{fill:#E4761B;stroke:#E4761B;stroke-width:5.882353e-02;stroke-linecap:round;stroke-linejoin:round;}
	.st3{fill:#D7C1B3;stroke:#D7C1B3;stroke-width:5.882353e-02;stroke-linecap:round;stroke-linejoin:round;}
	.st4{fill:#233447;stroke:#233447;stroke-width:5.882353e-02;stroke-linecap:round;stroke-linejoin:round;}
	.st5{fill:#CD6116;stroke:#CD6116;stroke-width:5.882353e-02;stroke-linecap:round;stroke-linejoin:round;}
	.st6{fill:#E4751F;stroke:#E4751F;stroke-width:5.882353e-02;stroke-linecap:round;stroke-linejoin:round;}
	.st7{fill:#F6851B;stroke:#F6851B;stroke-width:5.882353e-02;stroke-linecap:round;stroke-linejoin:round;}
	.st8{fill:#C0AD9E;stroke:#C0AD9E;stroke-width:5.882353e-02;stroke-linecap:round;stroke-linejoin:round;}
	.st9{fill:#161616;stroke:#161616;stroke-width:5.882353e-02;stroke-linecap:round;stroke-linejoin:round;}
	.st10{fill:#763D16;stroke:#763D16;stroke-width:5.882353e-02;stroke-linecap:round;stroke-linejoin:round;}
</style>
<linearGradient id="SVGID_1_" gradientUnits="userSpaceOnUse" x1="4.2893" y1="25.5015" x2="25.7107" y2="4.4985">
	<stop  offset="0" style="stop-color:#2EC6BA"/>
	<stop  offset="0.9816" style="stop-color:#2BEE9E"/>
</linearGradient>
<path class="st0" d="M15,0.9c7.8,0,14.1,6.3,14.1,14.1S22.8,29.1,15,29.1S0.9,22.8,0.9,15S7.2,0.9,15,0.9 M15,0C6.7,0,0,6.7,0,15
	c0,8.3,6.7,15,15,15c8.3,0,15-6.7,15-15C30,6.7,23.3,0,15,0L15,0z"/>
<g id="Layer_3">
	<g>
		<polygon class="st1" points="21.8,8 15.9,12.4 17,9.8 		"/>
		<g>
			<polygon class="st2" points="8.2,8 14,12.4 13,9.8 			"/>
			<polygon class="st2" points="19.6,18.1 18.1,20.5 21.4,21.4 22.4,18.2 			"/>
			<polygon class="st2" points="7.6,18.2 8.6,21.4 11.9,20.5 10.4,18.1 			"/>
			<polygon class="st2" points="11.7,14.1 10.8,15.5 14.1,15.6 14,12.1 			"/>
			<polygon class="st2" points="18.3,14.1 16,12 15.9,15.6 19.2,15.5 			"/>
			<polygon class="st2" points="11.9,20.5 13.9,19.5 12.2,18.2 			"/>
			<polygon class="st2" points="16.1,19.5 18.1,20.5 17.8,18.2 			"/>
		</g>
		<g>
			<polygon class="st3" points="18.1,20.5 16.1,19.5 16.3,20.8 16.2,21.4 			"/>
			<polygon class="st3" points="11.9,20.5 13.8,21.4 13.8,20.8 13.9,19.5 			"/>
		</g>
		<polygon class="st4" points="13.8,17.3 12.1,16.9 13.3,16.3 		"/>
		<polygon class="st4" points="16.2,17.3 16.7,16.3 17.9,16.9 		"/>
		<g>
			<polygon class="st5" points="11.9,20.5 12.2,18.1 10.4,18.2 			"/>
			<polygon class="st5" points="17.8,18.1 18.1,20.5 19.6,18.2 			"/>
			<polygon class="st5" points="19.2,15.5 15.9,15.6 16.2,17.3 16.7,16.3 17.9,16.9 			"/>
			<polygon class="st5" points="12.1,16.9 13.3,16.3 13.8,17.3 14.1,15.6 10.8,15.5 			"/>
		</g>
		<g>
			<polygon class="st6" points="10.8,15.5 12.2,18.2 12.1,16.9 			"/>
			<polygon class="st6" points="17.9,16.9 17.8,18.2 19.2,15.5 			"/>
			<polygon class="st6" points="14.1,15.6 13.8,17.3 14.2,19.3 14.3,16.7 			"/>
			<polygon class="st6" points="15.9,15.6 15.7,16.7 15.8,19.3 16.2,17.3 			"/>
		</g>
		<polygon class="st7" points="16.2,17.3 15.8,19.3 16.1,19.5 17.8,18.2 17.9,16.9 		"/>
		<polygon class="st7" points="12.1,16.9 12.2,18.2 13.9,19.5 14.2,19.3 13.8,17.3 		"/>
		<polygon class="st8" points="16.2,21.4 16.3,20.8 16.1,20.7 13.9,20.7 13.8,20.8 13.8,21.4 11.9,20.5 12.6,21 13.9,22 16.1,22 
			17.4,21 18.1,20.5 		"/>
		<polygon class="st9" points="16.1,19.5 15.8,19.3 14.2,19.3 13.9,19.5 13.8,20.8 13.9,20.7 16.1,20.7 16.3,20.8 		"/>
		<g>
			<polygon class="st10" points="22,12.7 22.5,10.3 21.8,8 16.1,12.2 18.3,14.1 21.3,15 22,14.2 21.7,14 22.2,13.6 21.8,13.3 
				22.3,12.9 			"/>
			<polygon class="st10" points="7.5,10.3 8,12.7 7.7,12.9 8.2,13.3 7.8,13.6 8.3,14 8,14.2 8.6,15 11.7,14.1 13.9,12.2 8.2,8 			
				"/>
		</g>
		<polygon class="st7" points="21.3,15 18.3,14.1 19.2,15.5 17.8,18.2 19.6,18.2 22.4,18.2 		"/>
		<polygon class="st7" points="11.7,14.1 8.6,15 7.6,18.2 10.4,18.2 12.2,18.2 10.8,15.5 		"/>
		<polygon class="st7" points="15.9,15.6 16.1,12.2 17,9.8 13,9.8 13.9,12.2 14.1,15.6 14.2,16.7 14.2,19.3 15.8,19.3 15.8,16.7 		
			"/>
	</g>
</g>
</svg>
